<svg width="170" height="170" viewBox="0 0 170 170" fill="none" xmlns="http://www.w3.org/2000/svg">
<rect x="0.5" y="0.5" width="169" height="169" rx="84.5" stroke="white"/>
<path d="M33.3141 43.42L33.4941 42.6H37.9541L37.7941 43.42L36.1541 43.66L30.4141 56.2H29.6141L28.2341 45.52L23.0541 56.2H22.2341L21.1141 43.62L19.5541 43.42L19.7141 42.6H24.9341L24.7741 43.42L22.8941 43.66L23.4541 53.34L28.1141 43.66L26.1941 43.42L26.3541 42.6H31.6141L31.4541 43.42L29.5941 43.64L30.6741 53.46L35.0941 43.68L33.3141 43.42ZM36.6848 56L38.3848 47.98L36.4048 47.86L36.4848 47.28L39.7848 46.26L40.0448 46.46L39.6048 49.14C39.8982 48.6333 40.2048 48.1667 40.5248 47.74C40.8582 47.3 41.2048 46.9467 41.5648 46.68C41.9248 46.4 42.2782 46.26 42.6248 46.26C42.9048 46.26 43.1648 46.3067 43.4048 46.4C43.6448 46.48 43.8315 46.6333 43.9648 46.86C43.9515 47.1933 43.8515 47.4667 43.6648 47.68C43.4915 47.88 43.2382 47.98 42.9048 47.98C42.7315 47.98 42.5382 47.9333 42.3248 47.84C42.1248 47.7333 41.9248 47.6067 41.7248 47.46C41.2448 47.86 40.8048 48.3333 40.4048 48.88C40.0048 49.4267 39.6248 50.0533 39.2648 50.76L39.0248 51.8C38.8782 52.4933 38.7382 53.1933 38.6048 53.9C38.4848 54.5933 38.3582 55.2933 38.2248 56L36.8848 56.16L36.6848 56ZM44.7727 55.24C44.7727 55.0933 44.786 54.92 44.8127 54.72C44.8393 54.5067 44.8993 54.1933 44.9927 53.78L46.1927 47.98L44.2127 47.86L44.2927 47.28L47.6927 46.26L47.9527 46.46L46.5327 53.3C46.4793 53.5533 46.4327 53.78 46.3927 53.98C46.366 54.18 46.3527 54.3333 46.3527 54.44C46.3527 54.5733 46.3993 54.68 46.4927 54.76C46.586 54.84 46.686 54.88 46.7927 54.88C47.2727 54.88 47.9127 54.4 48.7127 53.44L49.2127 53.82C48.9193 54.22 48.5993 54.6067 48.2527 54.98C47.9193 55.3533 47.5527 55.66 47.1527 55.9C46.766 56.14 46.3327 56.26 45.8527 56.26C45.586 56.26 45.3393 56.1733 45.1127 56C44.886 55.8267 44.7727 55.5733 44.7727 55.24ZM47.7127 43.54C47.3927 43.54 47.1327 43.44 46.9327 43.24C46.7327 43.0267 46.6327 42.7333 46.6327 42.36C46.6327 42.0267 46.7527 41.74 46.9927 41.5C47.2327 41.2467 47.506 41.12 47.8127 41.12C48.1327 41.12 48.3927 41.2267 48.5927 41.44C48.7927 41.64 48.8927 41.92 48.8927 42.28C48.8927 42.6 48.7727 42.8933 48.5327 43.16C48.2927 43.4133 48.0193 43.54 47.7127 43.54ZM50.8664 53.78L52.2064 47.5H50.1664L50.3064 46.7L52.4664 46.5L53.4064 43.82H54.4264L53.8464 46.52H56.3864L56.2264 47.6L53.6464 47.52L52.4264 53.26C52.3064 53.7933 52.2464 54.18 52.2464 54.42C52.2464 54.5667 52.2931 54.68 52.3864 54.76C52.4931 54.84 52.6064 54.88 52.7264 54.88C53.2331 54.88 53.8864 54.4 54.6864 53.44L55.1864 53.82C54.9064 54.22 54.5864 54.6067 54.2264 54.98C53.8664 55.3533 53.4797 55.66 53.0664 55.9C52.6531 56.14 52.2197 56.26 51.7664 56.26C51.4731 56.26 51.2131 56.1733 50.9864 56C50.7731 55.8267 50.6664 55.5733 50.6664 55.24C50.6664 55.0933 50.6797 54.92 50.7064 54.72C50.7331 54.5067 50.7864 54.1933 50.8664 53.78ZM61.1084 47.12C60.8018 47.12 60.4618 47.24 60.0884 47.48C59.7284 47.72 59.3751 48.0533 59.0284 48.48C58.6818 48.9067 58.3884 49.4 58.1484 49.96C57.9218 50.5067 57.7818 51.0933 57.7284 51.72C58.8351 51.4 59.7151 51.0467 60.3684 50.66C61.0351 50.26 61.5084 49.86 61.7884 49.46C62.0818 49.0467 62.2284 48.66 62.2284 48.3C62.2284 47.9267 62.1218 47.64 61.9084 47.44C61.7084 47.2267 61.4418 47.12 61.1084 47.12ZM59.3484 56.26C58.4684 56.26 57.7418 55.96 57.1684 55.36C56.6084 54.76 56.3284 53.82 56.3284 52.54C56.3284 51.74 56.4684 50.9667 56.7484 50.22C57.0284 49.46 57.4084 48.7867 57.8884 48.2C58.3684 47.6 58.9218 47.1267 59.5484 46.78C60.1884 46.4333 60.8551 46.26 61.5484 46.26C62.2018 46.26 62.6951 46.42 63.0284 46.74C63.3751 47.06 63.5484 47.5133 63.5484 48.1C63.5484 48.5267 63.3818 49 63.0484 49.52C62.7151 50.0267 62.1218 50.54 61.2684 51.06C60.4284 51.58 59.2484 52.06 57.7284 52.5C57.7684 53.3533 57.9684 53.9667 58.3284 54.34C58.6884 54.7 59.1751 54.88 59.7884 54.88C60.4151 54.88 60.9551 54.72 61.4084 54.4C61.8618 54.08 62.2218 53.7533 62.4884 53.42L62.9484 53.78C62.5351 54.46 62.0151 55.0467 61.3884 55.54C60.7618 56.02 60.0818 56.26 59.3484 56.26ZM68.9205 43.42L69.0805 42.6H74.3805L74.2205 43.42L72.4605 43.64L74.2805 49.42L78.0005 43.68L76.3205 43.42L76.4805 42.6H80.9405L80.7805 43.42L78.9805 43.68L74.5405 50.44C74.4071 51.1867 74.2738 51.94 74.1405 52.7C74.0071 53.46 73.8805 54.2133 73.7605 54.96L75.7805 55.2L75.6205 56H69.9205L70.0805 55.2L72.0005 55L72.8605 50.4L70.5205 43.62L68.9205 43.42ZM82.1739 56.26C81.5606 56.26 81.0006 56.1267 80.4939 55.86C79.9872 55.5933 79.5806 55.2 79.2739 54.68C78.9806 54.1467 78.8339 53.5 78.8339 52.74C78.8339 51.8333 78.9672 50.9933 79.2339 50.22C79.5139 49.4333 79.8939 48.7467 80.3739 48.16C80.8539 47.56 81.4072 47.0933 82.0339 46.76C82.6739 46.4267 83.3472 46.26 84.0539 46.26C85.0006 46.26 85.7739 46.56 86.3739 47.16C86.9872 47.76 87.2939 48.6267 87.2939 49.76C87.2939 50.6267 87.1606 51.4533 86.8939 52.24C86.6272 53.0133 86.2539 53.7067 85.7739 54.32C85.3072 54.92 84.7672 55.3933 84.1539 55.74C83.5406 56.0867 82.8806 56.26 82.1739 56.26ZM82.3939 55.46C82.8872 55.46 83.3339 55.3067 83.7339 55C84.1339 54.6933 84.4739 54.28 84.7539 53.76C85.0472 53.24 85.2739 52.66 85.4339 52.02C85.5939 51.38 85.6739 50.7267 85.6739 50.06C85.6739 48.98 85.5006 48.2133 85.1539 47.76C84.8206 47.2933 84.3806 47.06 83.8339 47.06C83.2072 47.06 82.6339 47.3067 82.1139 47.8C81.6072 48.2933 81.2072 48.9533 80.9139 49.78C80.6206 50.5933 80.4739 51.5 80.4739 52.5C80.4739 53.5533 80.6539 54.3133 81.0139 54.78C81.3739 55.2333 81.8339 55.46 82.3939 55.46ZM95.5595 56.26C95.2929 56.26 95.0462 56.1733 94.8195 56C94.6062 55.8267 94.4995 55.5667 94.4995 55.22C94.4995 55.0867 94.5062 54.9333 94.5195 54.76C94.5462 54.5733 94.5929 54.3133 94.6595 53.98C93.8862 54.6867 93.1795 55.2467 92.5395 55.66C91.8995 56.06 91.2729 56.26 90.6595 56.26C90.2862 56.26 89.9595 56.1533 89.6795 55.94C89.4129 55.7267 89.2795 55.3467 89.2795 54.8C89.2795 54.4267 89.3262 54.0133 89.4195 53.56C89.5262 53.0933 89.6195 52.6667 89.6995 52.28L90.6195 47.96L88.6395 47.86L88.7195 47.26L92.1995 46.26L92.4595 46.46L91.1995 52.12C91.1062 52.5333 91.0329 52.9 90.9795 53.22C90.9262 53.5267 90.8995 53.7933 90.8995 54.02C90.8995 54.5933 91.1529 54.88 91.6595 54.88C92.0862 54.88 92.5329 54.7467 92.9995 54.48C93.4662 54.2 94.0795 53.76 94.8395 53.16L95.3795 50.5C95.5129 49.86 95.6395 49.22 95.7595 48.58C95.8929 47.94 96.0062 47.3 96.0995 46.66L97.3995 46.26L97.6595 46.46L96.2395 53.3C96.1862 53.5533 96.1395 53.78 96.0995 53.98C96.0729 54.18 96.0595 54.3333 96.0595 54.44C96.0595 54.5733 96.1062 54.68 96.1995 54.76C96.2929 54.84 96.3995 54.88 96.5195 54.88C96.7862 54.88 97.0795 54.76 97.3995 54.52C97.7195 54.28 98.0862 53.92 98.4995 53.44L98.9795 53.82C98.6729 54.22 98.3462 54.6067 97.9995 54.98C97.6529 55.3533 97.2795 55.66 96.8795 55.9C96.4795 56.14 96.0395 56.26 95.5595 56.26ZM100.085 56L101.785 47.98L99.8048 47.86L99.8848 47.28L103.185 46.26L103.445 46.46L103.005 49.14C103.298 48.6333 103.605 48.1667 103.925 47.74C104.258 47.3 104.605 46.9467 104.965 46.68C105.325 46.4 105.678 46.26 106.025 46.26C106.305 46.26 106.565 46.3067 106.805 46.4C107.045 46.48 107.232 46.6333 107.365 46.86C107.352 47.1933 107.252 47.4667 107.065 47.68C106.892 47.88 106.638 47.98 106.305 47.98C106.132 47.98 105.938 47.9333 105.725 47.84C105.525 47.7333 105.325 47.6067 105.125 47.46C104.645 47.86 104.205 48.3333 103.805 48.88C103.405 49.4267 103.025 50.0533 102.665 50.76L102.425 51.8C102.278 52.4933 102.138 53.1933 102.005 53.9C101.885 54.5933 101.758 55.2933 101.625 56L100.285 56.16L100.085 56ZM125.86 43.42L126.04 42.6H130.5L130.34 43.42L128.7 43.66L122.96 56.2H122.16L120.78 45.52L115.6 56.2H114.78L113.66 43.62L112.1 43.42L112.26 42.6H117.48L117.32 43.42L115.44 43.66L116 53.34L120.66 43.66L118.74 43.42L118.9 42.6H124.16L124 43.42L122.14 43.64L123.22 53.46L127.64 43.68L125.86 43.42ZM129.902 55.24C129.902 55.0933 129.915 54.92 129.942 54.72C129.968 54.5067 130.028 54.1933 130.122 53.78L131.322 47.98L129.342 47.86L129.422 47.28L132.822 46.26L133.082 46.46L131.662 53.3C131.608 53.5533 131.562 53.78 131.522 53.98C131.495 54.18 131.482 54.3333 131.482 54.44C131.482 54.5733 131.528 54.68 131.622 54.76C131.715 54.84 131.815 54.88 131.922 54.88C132.402 54.88 133.042 54.4 133.842 53.44L134.342 53.82C134.048 54.22 133.728 54.6067 133.382 54.98C133.048 55.3533 132.682 55.66 132.282 55.9C131.895 56.14 131.462 56.26 130.982 56.26C130.715 56.26 130.468 56.1733 130.242 56C130.015 55.8267 129.902 55.5733 129.902 55.24ZM132.842 43.54C132.522 43.54 132.262 43.44 132.062 43.24C131.862 43.0267 131.762 42.7333 131.762 42.36C131.762 42.0267 131.882 41.74 132.122 41.5C132.362 41.2467 132.635 41.12 132.942 41.12C133.262 41.12 133.522 41.2267 133.722 41.44C133.922 41.64 134.022 41.92 134.022 42.28C134.022 42.6 133.902 42.8933 133.662 43.16C133.422 43.4133 133.148 43.54 132.842 43.54ZM140.575 53.42C140.575 54.2467 140.262 54.9267 139.635 55.46C139.022 55.9933 138.209 56.26 137.195 56.26C136.422 56.26 135.829 56.08 135.415 55.72C135.015 55.36 134.782 54.88 134.715 54.28C134.769 54.1067 134.862 53.9733 134.995 53.88C135.142 53.7733 135.295 53.72 135.455 53.72C135.749 53.72 135.962 53.8 136.095 53.96C136.242 54.1067 136.349 54.32 136.415 54.6L136.635 55.46C136.675 55.4733 136.715 55.48 136.755 55.48C136.809 55.48 136.862 55.48 136.915 55.48C137.609 55.48 138.149 55.3267 138.535 55.02C138.922 54.7133 139.115 54.3 139.115 53.78C139.115 53.46 139.042 53.1533 138.895 52.86C138.749 52.5667 138.389 52.2133 137.815 51.8C137.322 51.4133 136.902 51.02 136.555 50.62C136.222 50.2067 136.055 49.6867 136.055 49.06C136.055 48.54 136.189 48.0667 136.455 47.64C136.722 47.2133 137.089 46.88 137.555 46.64C138.035 46.3867 138.595 46.26 139.235 46.26C139.822 46.26 140.329 46.3933 140.755 46.66C141.182 46.9133 141.469 47.3667 141.615 48.02C141.495 48.3933 141.242 48.58 140.855 48.58C140.389 48.58 140.049 48.2667 139.835 47.64L139.655 47.06C139.615 47.0467 139.569 47.04 139.515 47.04C139.475 47.04 139.429 47.04 139.375 47.04C138.682 47.04 138.189 47.2 137.895 47.52C137.615 47.84 137.475 48.2267 137.475 48.68C137.475 49.0933 137.575 49.44 137.775 49.72C137.989 49.9867 138.382 50.3333 138.955 50.76C139.555 51.2133 139.975 51.6267 140.215 52C140.455 52.36 140.575 52.8333 140.575 53.42ZM142.247 56.16L142.047 56L143.987 46.46C144.107 45.8733 144.22 45.2867 144.327 44.7C144.447 44.1 144.554 43.5 144.647 42.9L142.747 42.78L142.827 42.2L146.287 41.2L146.487 41.36L145.047 48.48C145.687 47.8533 146.38 47.3267 147.127 46.9C147.887 46.4733 148.567 46.26 149.167 46.26C150.034 46.26 150.467 46.72 150.467 47.64C150.467 47.96 150.427 48.2867 150.347 48.62C150.28 48.94 150.207 49.2667 150.127 49.6L149.227 53.3C149.16 53.58 149.1 53.82 149.047 54.02C148.994 54.2067 148.967 54.3533 148.967 54.46C148.967 54.74 149.1 54.88 149.367 54.88C149.607 54.88 149.9 54.7533 150.247 54.5C150.607 54.2467 150.967 53.8933 151.327 53.44L151.807 53.82C151.554 54.2067 151.24 54.5933 150.867 54.98C150.507 55.3533 150.114 55.66 149.687 55.9C149.26 56.14 148.82 56.26 148.367 56.26C148.047 56.26 147.794 56.18 147.607 56.02C147.434 55.86 147.347 55.6533 147.347 55.4C147.347 55.1733 147.374 54.9533 147.427 54.74C147.494 54.5133 147.574 54.1933 147.667 53.78L148.527 50.26C148.607 49.9133 148.68 49.5867 148.747 49.28C148.814 48.9733 148.847 48.72 148.847 48.52C148.847 48.1733 148.787 47.9333 148.667 47.8C148.547 47.6667 148.374 47.6 148.147 47.6C147.787 47.6 147.334 47.7467 146.787 48.04C146.24 48.32 145.6 48.7533 144.867 49.34L144.347 51.8C144.214 52.4933 144.08 53.1933 143.947 53.9C143.814 54.5933 143.694 55.2933 143.587 56L142.247 56.16ZM38.3395 76.24C38.3395 76.0933 38.3528 75.92 38.3795 75.72C38.4061 75.5067 38.4661 75.1933 38.5595 74.78L39.7595 68.98L37.7795 68.86L37.8595 68.28L41.2595 67.26L41.5195 67.46L40.0995 74.3C40.0461 74.5533 39.9995 74.78 39.9595 74.98C39.9328 75.18 39.9195 75.3333 39.9195 75.44C39.9195 75.5733 39.9661 75.68 40.0595 75.76C40.1528 75.84 40.2528 75.88 40.3595 75.88C40.8395 75.88 41.4795 75.4 42.2795 74.44L42.7795 74.82C42.4861 75.22 42.1661 75.6067 41.8195 75.98C41.4861 76.3533 41.1195 76.66 40.7195 76.9C40.3328 77.14 39.8995 77.26 39.4195 77.26C39.1528 77.26 38.9061 77.1733 38.6795 77C38.4528 76.8267 38.3395 76.5733 38.3395 76.24ZM41.2795 64.54C40.9595 64.54 40.6995 64.44 40.4995 64.24C40.2995 64.0267 40.1995 63.7333 40.1995 63.36C40.1995 63.0267 40.3195 62.74 40.5595 62.5C40.7995 62.2467 41.0728 62.12 41.3795 62.12C41.6995 62.12 41.9595 62.2267 42.1595 62.44C42.3595 62.64 42.4595 62.92 42.4595 63.28C42.4595 63.6 42.3395 63.8933 42.0995 64.16C41.8595 64.4133 41.5861 64.54 41.2795 64.54ZM45.4932 77L44.1532 77.16L43.9532 77L45.6532 68.98L43.6732 68.86L43.7532 68.28L47.1532 67.26L47.4132 67.46L46.9932 69.52C47.6599 68.8933 48.3665 68.36 49.1132 67.92C49.8732 67.48 50.5599 67.26 51.1732 67.26C52.0265 67.26 52.4532 67.72 52.4532 68.64C52.4532 68.96 52.4199 69.2867 52.3532 69.62C52.2865 69.94 52.2132 70.2667 52.1332 70.6L51.2332 74.3C51.1665 74.58 51.1065 74.82 51.0532 75.02C50.9999 75.2067 50.9732 75.3533 50.9732 75.46C50.9732 75.74 51.0999 75.88 51.3532 75.88C51.6065 75.88 51.9065 75.7533 52.2532 75.5C52.6132 75.2467 52.9732 74.8933 53.3332 74.44L53.8132 74.82C53.5599 75.2067 53.2465 75.5933 52.8732 75.98C52.5132 76.3533 52.1199 76.66 51.6932 76.9C51.2665 77.14 50.8199 77.26 50.3532 77.26C50.0465 77.26 49.7999 77.18 49.6132 77.02C49.4399 76.86 49.3532 76.6533 49.3532 76.4C49.3532 76.1733 49.3799 75.9533 49.4332 75.74C49.4999 75.5133 49.5799 75.1933 49.6732 74.78L50.5332 71.26C50.6132 70.9133 50.6865 70.5867 50.7532 70.28C50.8199 69.9733 50.8532 69.72 50.8532 69.52C50.8532 69.1733 50.7932 68.9333 50.6732 68.8C50.5532 68.6667 50.3799 68.6 50.1532 68.6C49.7932 68.6 49.3332 68.7467 48.7732 69.04C48.2132 69.3333 47.5665 69.78 46.8332 70.38L46.2932 72.8C46.1465 73.4933 46.0065 74.1933 45.8732 74.9C45.7532 75.5933 45.6265 76.2933 45.4932 77ZM61.0502 77L59.7102 77.16L59.5102 77L61.2102 68.98L59.2302 68.86L59.3102 68.28L62.7102 67.26L62.9702 67.46L62.5502 69.52C63.2169 68.8933 63.9236 68.36 64.6702 67.92C65.4302 67.48 66.1169 67.26 66.7302 67.26C67.5836 67.26 68.0102 67.72 68.0102 68.64C68.0102 68.96 67.9769 69.2867 67.9102 69.62C67.8436 69.94 67.7702 70.2667 67.6902 70.6L66.7902 74.3C66.7236 74.58 66.6636 74.82 66.6102 75.02C66.5569 75.2067 66.5302 75.3533 66.5302 75.46C66.5302 75.74 66.6569 75.88 66.9102 75.88C67.1636 75.88 67.4636 75.7533 67.8102 75.5C68.1702 75.2467 68.5302 74.8933 68.8902 74.44L69.3702 74.82C69.1169 75.2067 68.8036 75.5933 68.4302 75.98C68.0702 76.3533 67.6769 76.66 67.2502 76.9C66.8236 77.14 66.3769 77.26 65.9102 77.26C65.6036 77.26 65.3569 77.18 65.1702 77.02C64.9969 76.86 64.9102 76.6533 64.9102 76.4C64.9102 76.1733 64.9369 75.9533 64.9902 75.74C65.0569 75.5133 65.1369 75.1933 65.2302 74.78L66.0902 71.26C66.1702 70.9133 66.2436 70.5867 66.3102 70.28C66.3769 69.9733 66.4102 69.72 66.4102 69.52C66.4102 69.1733 66.3502 68.9333 66.2302 68.8C66.1102 68.6667 65.9369 68.6 65.7102 68.6C65.3502 68.6 64.8902 68.7467 64.3302 69.04C63.7702 69.3333 63.1236 69.78 62.3902 70.38L61.8502 72.8C61.7036 73.4933 61.5636 74.1933 61.4302 74.9C61.3102 75.5933 61.1836 76.2933 61.0502 77ZM74.9198 68.12C74.6131 68.12 74.2731 68.24 73.8998 68.48C73.5398 68.72 73.1864 69.0533 72.8398 69.48C72.4931 69.9067 72.1998 70.4 71.9598 70.96C71.7331 71.5067 71.5931 72.0933 71.5398 72.72C72.6464 72.4 73.5264 72.0467 74.1798 71.66C74.8464 71.26 75.3198 70.86 75.5998 70.46C75.8931 70.0467 76.0398 69.66 76.0398 69.3C76.0398 68.9267 75.9331 68.64 75.7198 68.44C75.5198 68.2267 75.2531 68.12 74.9198 68.12ZM73.1598 77.26C72.2798 77.26 71.5531 76.96 70.9798 76.36C70.4198 75.76 70.1398 74.82 70.1398 73.54C70.1398 72.74 70.2798 71.9667 70.5598 71.22C70.8398 70.46 71.2198 69.7867 71.6998 69.2C72.1798 68.6 72.7331 68.1267 73.3598 67.78C73.9998 67.4333 74.6664 67.26 75.3598 67.26C76.0131 67.26 76.5064 67.42 76.8398 67.74C77.1864 68.06 77.3598 68.5133 77.3598 69.1C77.3598 69.5267 77.1931 70 76.8598 70.52C76.5264 71.0267 75.9331 71.54 75.0798 72.06C74.2398 72.58 73.0598 73.06 71.5398 73.5C71.5798 74.3533 71.7798 74.9667 72.1398 75.34C72.4998 75.7 72.9864 75.88 73.5998 75.88C74.2264 75.88 74.7664 75.72 75.2198 75.4C75.6731 75.08 76.0331 74.7533 76.2998 74.42L76.7598 74.78C76.3464 75.46 75.8264 76.0467 75.1998 76.54C74.5731 77.02 73.8931 77.26 73.1598 77.26ZM76.9043 75.84C76.9576 75.6 77.071 75.42 77.2443 75.3C77.431 75.18 77.6043 75.12 77.7643 75.12C77.9776 75.12 78.1576 75.1667 78.3043 75.26C78.451 75.34 78.611 75.5333 78.7843 75.84L79.0043 76.24C79.1243 76.1467 79.251 76.0267 79.3843 75.88C79.8643 75.36 80.311 74.8267 80.7243 74.28C81.1376 73.7333 81.551 73.1533 81.9643 72.54L81.1243 69.68C81.0043 69.2667 80.891 68.9867 80.7843 68.84C80.691 68.68 80.5376 68.6 80.3243 68.6C80.191 68.6 79.991 68.68 79.7243 68.84C79.471 69 79.171 69.3733 78.8243 69.96L78.3643 69.62C78.7376 68.7933 79.1443 68.1933 79.5843 67.82C80.0243 67.4467 80.451 67.26 80.8643 67.26C81.251 67.26 81.5576 67.3867 81.7843 67.64C82.0243 67.8933 82.231 68.34 82.4043 68.98L83.0243 71.2C83.451 70.52 83.851 69.92 84.2243 69.4C84.611 68.88 84.931 68.4667 85.1843 68.16C85.4776 67.8133 85.7443 67.58 85.9843 67.46C86.2243 67.3267 86.5043 67.26 86.8243 67.26C87.091 67.26 87.3576 67.3467 87.6243 67.52C87.9043 67.6933 88.0843 67.96 88.1643 68.32C88.1643 68.6 88.0843 68.8333 87.9243 69.02C87.7643 69.1933 87.571 69.28 87.3443 69.28C87.1443 69.28 86.9576 69.24 86.7843 69.16C86.611 69.0667 86.431 68.88 86.2443 68.6L86.1243 68.44C86.071 68.48 86.0243 68.5267 85.9843 68.58C85.9443 68.6333 85.8976 68.6867 85.8443 68.74C85.3776 69.26 84.931 69.7933 84.5043 70.34C84.0776 70.8867 83.6643 71.4467 83.2643 72.02L83.9643 74.56C84.111 75.1067 84.2643 75.4667 84.4243 75.64C84.5976 75.8 84.8243 75.88 85.1043 75.88C85.371 75.88 85.6643 75.7533 85.9843 75.5C86.3176 75.2467 86.6643 74.8933 87.0243 74.44L87.5243 74.82C87.0443 75.5267 86.5243 76.1133 85.9643 76.58C85.4043 77.0333 84.8576 77.26 84.3243 77.26C84.031 77.26 83.771 77.1667 83.5443 76.98C83.3176 76.78 83.1176 76.3933 82.9443 75.82L82.2043 73.34C81.791 74.0067 81.3976 74.6133 81.0243 75.16C80.651 75.6933 80.291 76.1667 79.9443 76.58C79.731 76.8333 79.511 77.0067 79.2843 77.1C79.0576 77.2067 78.811 77.26 78.5443 77.26C78.1443 77.26 77.7776 77.1467 77.4443 76.92C77.1243 76.68 76.9443 76.32 76.9043 75.84ZM89.1754 74.78L90.5154 68.5H88.4754L88.6154 67.7L90.7754 67.5L91.7154 64.82H92.7354L92.1554 67.52H94.6954L94.5354 68.6L91.9554 68.52L90.7354 74.26C90.6154 74.7933 90.5554 75.18 90.5554 75.42C90.5554 75.5667 90.6021 75.68 90.6954 75.76C90.8021 75.84 90.9154 75.88 91.0354 75.88C91.5421 75.88 92.1954 75.4 92.9954 74.44L93.4954 74.82C93.2154 75.22 92.8954 75.6067 92.5354 75.98C92.1754 76.3533 91.7887 76.66 91.3754 76.9C90.9621 77.14 90.5287 77.26 90.0754 77.26C89.7821 77.26 89.5221 77.1733 89.2954 77C89.0821 76.8267 88.9754 76.5733 88.9754 76.24C88.9754 76.0933 88.9887 75.92 89.0154 75.72C89.0421 75.5067 89.0954 75.1933 89.1754 74.78ZM96.4049 80.64C96.4583 80.3467 96.5849 80.12 96.7849 79.96C96.9716 79.8133 97.2049 79.74 97.4849 79.74C97.7783 79.74 98.0449 79.8 98.2849 79.92C98.5383 80.0533 98.8116 80.2267 99.1049 80.44L99.1649 80.48C99.8183 80.0667 100.418 79.58 100.965 79.02C101.152 78.8333 101.332 78.64 101.505 78.44C101.678 78.24 101.852 78.0333 102.025 77.82C101.972 77.0333 101.905 76.3333 101.825 75.72C101.758 75.0933 101.678 74.4467 101.585 73.78C101.505 73.1133 101.405 72.34 101.285 71.46C101.192 70.6067 101.105 69.9867 101.025 69.6C100.958 69.2 100.885 68.94 100.805 68.82C100.725 68.7 100.625 68.64 100.505 68.64C100.332 68.64 100.152 68.7267 99.9649 68.9C99.7916 69.06 99.5249 69.4133 99.1649 69.96L98.7049 69.64C99.1049 68.7867 99.5249 68.18 99.9649 67.82C100.405 67.4467 100.832 67.26 101.245 67.26C101.498 67.26 101.712 67.3267 101.885 67.46C102.072 67.5933 102.225 67.8533 102.345 68.24C102.478 68.6133 102.585 69.1733 102.665 69.92C102.785 71.08 102.878 72.1733 102.945 73.2C103.025 74.2267 103.085 75.2067 103.125 76.14C103.592 75.2867 103.985 74.5333 104.305 73.88C104.638 73.2267 104.925 72.5867 105.165 71.96C105.418 71.32 105.652 70.62 105.865 69.86C106.092 69.0867 106.278 68.5067 106.425 68.12C106.585 67.7333 106.738 67.4733 106.885 67.34C107.032 67.2067 107.198 67.14 107.385 67.14C107.612 67.14 107.792 67.2067 107.925 67.34C108.058 67.46 108.125 67.62 108.125 67.82C108.125 68.0733 108.092 68.3067 108.025 68.52C107.958 68.7333 107.825 69.04 107.625 69.44C107.412 69.8667 107.185 70.3133 106.945 70.78C106.718 71.2333 106.412 71.8 106.025 72.48C105.652 73.1333 105.245 73.8467 104.805 74.62C104.378 75.38 103.892 76.1733 103.345 77C103.092 77.3867 102.818 77.7867 102.525 78.2C102.232 78.6267 101.878 79.0667 101.465 79.52C100.812 80.2267 100.185 80.78 99.5849 81.18C98.9983 81.5933 98.4116 81.8 97.8249 81.8C97.3849 81.8 97.0449 81.6867 96.8049 81.46C96.5649 81.2467 96.4316 80.9733 96.4049 80.64ZM113.217 68.12C112.91 68.12 112.57 68.24 112.197 68.48C111.837 68.72 111.483 69.0533 111.137 69.48C110.79 69.9067 110.497 70.4 110.257 70.96C110.03 71.5067 109.89 72.0933 109.837 72.72C110.943 72.4 111.823 72.0467 112.477 71.66C113.143 71.26 113.617 70.86 113.897 70.46C114.19 70.0467 114.337 69.66 114.337 69.3C114.337 68.9267 114.23 68.64 114.017 68.44C113.817 68.2267 113.55 68.12 113.217 68.12ZM111.457 77.26C110.577 77.26 109.85 76.96 109.277 76.36C108.717 75.76 108.437 74.82 108.437 73.54C108.437 72.74 108.577 71.9667 108.857 71.22C109.137 70.46 109.517 69.7867 109.997 69.2C110.477 68.6 111.03 68.1267 111.657 67.78C112.297 67.4333 112.963 67.26 113.657 67.26C114.31 67.26 114.803 67.42 115.137 67.74C115.483 68.06 115.657 68.5133 115.657 69.1C115.657 69.5267 115.49 70 115.157 70.52C114.823 71.0267 114.23 71.54 113.377 72.06C112.537 72.58 111.357 73.06 109.837 73.5C109.877 74.3533 110.077 74.9667 110.437 75.34C110.797 75.7 111.283 75.88 111.897 75.88C112.523 75.88 113.063 75.72 113.517 75.4C113.97 75.08 114.33 74.7533 114.597 74.42L115.057 74.78C114.643 75.46 114.123 76.0467 113.497 76.54C112.87 77.02 112.19 77.26 111.457 77.26ZM117.664 74.08C117.664 74.6933 117.77 75.1467 117.984 75.44C118.21 75.7333 118.504 75.88 118.864 75.88C119.21 75.88 119.61 75.74 120.064 75.46C120.517 75.18 121.07 74.68 121.724 73.96L122.804 68.96C122.617 68.8533 122.417 68.7667 122.204 68.7C122.004 68.62 121.797 68.58 121.584 68.58C121.264 68.58 120.904 68.68 120.504 68.88C120.117 69.08 119.744 69.3667 119.384 69.74C118.904 70.2333 118.497 70.86 118.164 71.62C117.83 72.38 117.664 73.2 117.664 74.08ZM122.464 77.26C122.197 77.26 121.957 77.1667 121.744 76.98C121.53 76.7933 121.424 76.5 121.424 76.1C121.424 75.7133 121.45 75.36 121.504 75.04C120.93 75.6933 120.337 76.2267 119.724 76.64C119.124 77.0533 118.55 77.26 118.004 77.26C117.524 77.26 117.084 77.0733 116.684 76.7C116.297 76.3267 116.104 75.7267 116.104 74.9C116.104 74.2067 116.23 73.5 116.484 72.78C116.75 72.06 117.097 71.3733 117.524 70.72C117.964 70.0533 118.45 69.46 118.984 68.94C119.53 68.42 120.084 68.0133 120.644 67.72C121.217 67.4133 121.764 67.26 122.284 67.26C122.51 67.26 122.717 67.3067 122.904 67.4C123.09 67.4933 123.264 67.6267 123.424 67.8L124.344 67.06L124.704 67.24L123.104 74.3C122.984 74.7933 122.924 75.1733 122.924 75.44C122.924 75.5733 122.97 75.68 123.064 75.76C123.157 75.84 123.27 75.88 123.404 75.88C123.657 75.88 123.957 75.7467 124.304 75.48C124.664 75.2133 125.017 74.8667 125.364 74.44L125.844 74.82C125.59 75.2067 125.284 75.5867 124.924 75.96C124.564 76.3333 124.177 76.6467 123.764 76.9C123.35 77.14 122.917 77.26 122.464 77.26ZM126.973 77L128.673 68.98L126.693 68.86L126.773 68.28L130.073 67.26L130.333 67.46L129.893 70.14C130.186 69.6333 130.493 69.1667 130.813 68.74C131.146 68.3 131.493 67.9467 131.853 67.68C132.213 67.4 132.566 67.26 132.913 67.26C133.193 67.26 133.453 67.3067 133.693 67.4C133.933 67.48 134.119 67.6333 134.253 67.86C134.239 68.1933 134.139 68.4667 133.953 68.68C133.779 68.88 133.526 68.98 133.193 68.98C133.019 68.98 132.826 68.9333 132.613 68.84C132.413 68.7333 132.213 68.6067 132.013 68.46C131.533 68.86 131.093 69.3333 130.693 69.88C130.293 70.4267 129.913 71.0533 129.553 71.76L129.313 72.8C129.166 73.4933 129.026 74.1933 128.893 74.9C128.773 75.5933 128.646 76.2933 128.513 77L127.173 77.16L126.973 77Z" fill="white"/>
<path d="M84.2929 130.707C84.6834 131.098 85.3166 131.098 85.7071 130.707L92.0711 124.343C92.4616 123.953 92.4616 123.319 92.0711 122.929C91.6805 122.538 91.0474 122.538 90.6569 122.929L85 128.586L79.3431 122.929C78.9526 122.538 78.3195 122.538 77.9289 122.929C77.5384 123.319 77.5384 123.953 77.9289 124.343L84.2929 130.707ZM86 92C86 91.4477 85.5523 91 85 91C84.4477 91 84 91.4477 84 92L86 92ZM86 130L86 92L84 92L84 130L86 130Z" fill="white"/>
</svg>
