<svg width="65" height="52" viewBox="0 0 65 52" fill="none" xmlns="http://www.w3.org/2000/svg">
<path opacity="0.4" d="M11.6192 52C9.35492 52 7.3886 51.5887 5.72021 50.7661C4.17099 49.9435 2.68135 48.8271 1.2513 47.417C0.893783 46.3593 0.595856 45.1842 0.357514 43.8915C0.119171 42.5989 0 41.2475 0 39.8373C0 31.4938 2.68135 24.1492 8.04404 17.8034C13.4067 11.3401 20.1399 5.40565 28.2435 0L32.5337 5.28814C28.7202 8.3435 25.443 11.3401 22.7021 14.278C19.9611 17.0983 17.3394 20.3299 14.8368 23.9729L19.1269 28.9085C20.4378 30.5537 21.5104 32.2576 22.3446 34.0203C23.2979 35.7831 23.7746 37.6045 23.7746 39.4847C23.7746 43.3627 22.5233 46.4181 20.0207 48.6508C17.6373 50.8836 14.8368 52 11.6192 52ZM44.0855 52C41.8212 52 39.8549 51.5887 38.1865 50.7661C36.6373 49.9435 35.1477 48.8271 33.7176 47.417C33.3601 46.3593 33.0622 45.1842 32.8238 43.8915C32.5855 42.5989 32.4663 41.2475 32.4663 39.8373C32.4663 31.4938 35.1477 24.1492 40.5104 17.8034C45.8731 11.3401 52.6062 5.40565 60.7098 0L65 5.28814C61.1865 8.3435 57.9093 11.3401 55.1684 14.278C52.4275 17.0983 49.8057 20.3299 47.3031 23.9729L51.5933 28.9085C52.9041 30.5537 53.9767 32.2576 54.8109 34.0203C55.7643 35.7831 56.2409 37.6045 56.2409 39.4847C56.2409 43.3627 54.9896 46.4181 52.487 48.6508C50.1036 50.8836 47.3031 52 44.0855 52Z" fill="white"/>
</svg>
