<svg width="376" height="372" viewBox="0 0 376 372" fill="none" xmlns="http://www.w3.org/2000/svg">
<g filter="url(#filter0_d_22_3178)">
<mask id="path-1-outside-1_22_3178" maskUnits="userSpaceOnUse" x="13.5" y="13" width="349" height="346" fill="black">
<rect fill="white" x="13.5" y="13" width="349" height="346"/>
<path d="M354.037 305.38C353.923 305.185 353.772 305.015 353.593 304.879C353.413 304.743 353.208 304.644 352.99 304.586C352.772 304.529 352.545 304.515 352.321 304.545C352.098 304.576 351.882 304.65 351.688 304.763C351.493 304.876 351.322 305.026 351.185 305.205C351.049 305.384 350.949 305.588 350.892 305.806C350.834 306.023 350.82 306.25 350.85 306.472C350.881 306.695 350.955 306.91 351.069 307.104C368.751 336.745 322.018 349.785 301.216 353.209C281.891 356.406 261.897 353.511 242.964 349.206C217.084 343.316 192.265 333.259 168.33 321.956C157.367 316.783 146.378 311.648 135.402 306.449C150.18 302.082 164.831 297.249 179.091 291.484C191.128 286.625 202.306 280.156 213.585 273.724C220.583 269.759 227.593 265.807 234.653 261.956L235.449 262.17C256.024 267.62 278.241 271.912 299.612 271.786C313.164 271.71 359.19 268.954 348.871 245.241C344.16 234.479 332.59 229.256 321.425 228.387C307.418 227.28 293.069 231.735 280.123 236.543C264.082 242.497 248.837 250.162 233.857 258.331L233.264 258.18C208.403 251.446 184.581 241.364 162.457 228.211C152.593 222.358 142.816 216.203 132.737 210.691C151.254 203.34 169.113 194.051 186.619 184.901C192.202 181.98 197.86 179.174 203.595 176.568C216.895 183.289 230.7 188.966 245.376 191.748C260.053 194.529 280.009 194.139 290 180.923C300.648 166.851 279.138 160.042 268.768 158.683C246.614 155.75 224.018 163.68 203.961 172.402L203.153 172.767C194.046 168.06 185.167 162.887 176.401 157.902C171.349 155.045 166.297 152.163 161.244 149.318C177.664 145.253 193.806 139.362 209.43 133.358C213.156 131.936 217.122 130.275 221.252 128.626C226.46 132.341 231.856 135.786 237.419 138.947C245.591 143.554 254.42 147.644 263.943 148.123C271.079 148.475 282.119 143.73 282.611 135.473C283.104 127.216 274.022 121.401 267.076 118.922C258.007 115.699 247.637 117.185 238.531 119.375C232.796 120.833 227.156 122.64 221.644 124.787C205.691 113.459 191.116 100.117 175.226 88.6634C173.5 87.4215 171.753 86.1922 169.985 84.9755C180.809 78.8333 190.547 70.0982 201.561 64.7489L202.496 64.3209C205.704 72.5903 211.337 79.6136 221.151 80.243C226.468 80.5828 234.009 78.9843 234.527 72.691C234.994 66.9641 228.401 62.1812 223.98 60.0163C217.602 56.8948 210.983 57.3731 204.555 59.5884C203.646 56.3419 202.921 53.0475 202.382 49.7205C200.437 38.3925 201.119 26.1457 197.557 15.1451C197.434 14.7751 197.184 14.4598 196.852 14.2535C196.52 14.0472 196.126 13.9629 195.738 14.0151C195.351 14.0673 194.993 14.2528 194.728 14.5395C194.463 14.8262 194.307 15.1962 194.286 15.5856C192.53 29.6574 184.586 41.514 176.603 52.8923C175.643 54.2642 177.866 55.4977 178.826 54.1509C185.937 44.497 192.631 34.7676 195.903 23.4019C196.383 26.7751 196.623 30.186 196.951 33.4712C197.521 40.647 198.461 47.7888 199.768 54.8684C200.159 56.8193 200.652 58.808 201.245 60.7715C193.048 64.3335 185.28 70.287 178.851 74.6168C174.814 77.4449 170.632 80.0623 166.322 82.4582C161.775 79.45 157.102 76.5929 152.327 74.0629C146.543 70.9918 137.752 66.9515 131.272 70.3751C123.694 74.365 124.78 82.3449 130.805 87.0271C137.385 92.1373 145.823 92.7666 153.742 91.2311C158.181 90.3228 162.473 88.8109 166.499 86.7377C170.465 89.406 174.342 92.1751 178.144 95.0071C191.633 105.076 204.315 116.203 217.88 126.121L209.468 129.394C197.658 133.963 185.558 138.066 173.471 141.842C167.863 143.591 162.166 145.202 156.432 146.574C150.723 143.44 144.976 140.394 139.154 137.525C127.988 132.112 113.021 124.384 100.138 127.669C97.7019 128.354 95.5107 129.714 93.8184 131.589C92.1261 133.465 91.0021 135.781 90.5766 138.267C89.5915 143.39 93.1785 147.204 97.3971 149.432C108.575 155.322 124.085 155.133 136.312 153.837C143.164 153.084 149.966 151.937 156.685 150.401C164.402 154.68 172.056 159.085 179.685 163.44C186.202 167.216 192.795 170.904 199.515 174.416C189.903 178.897 180.569 184.007 171.147 188.802C157.253 195.851 143.17 202.497 128.67 208.198L128.38 208.312C119.023 203.283 109.142 199.29 98.9128 196.405C92.4668 194.704 85.7596 194.213 79.1334 194.957C73.197 195.536 66.5913 196.682 61.6527 200.256C51.9778 207.267 62.3095 218.293 70.052 221.251C81.3185 225.568 95.1363 222.434 106.327 219.489C114 217.438 121.56 214.984 128.973 212.138C141.528 218.859 153.54 226.801 165.728 233.888C185.87 245.414 207.378 254.386 229.752 260.596C218.536 266.789 207.447 273.183 196.244 279.338C179.117 288.727 160.562 295.021 141.932 300.735C138.168 301.893 134.379 303.034 130.565 304.159C118.781 298.545 107.034 292.831 95.4141 286.965C78.4134 278.331 62.1201 265.921 42.5428 263.743C28.7502 262.207 11.7748 269.407 14.8693 285.681C17.4712 299.401 31.0995 311.736 42.6564 318.482C61.0465 329.269 84.1856 320.446 102.967 315.461C112.2 313.007 121.446 310.515 130.653 307.909C144.471 314.572 158.331 321.125 172.233 327.57C195.637 338.394 219.913 347.708 245.149 353.246C263.249 357.249 282.207 359.54 300.66 356.808C324.14 353.284 373.513 338.079 354.037 305.38ZM225.9 65.139C228.287 66.8005 230.952 69.5695 230.952 72.691C231.053 76.7565 223.614 76.8698 221.063 76.8068C212.802 76.5425 208.306 70.2492 205.628 62.9867C212.499 60.5953 219.408 60.6205 225.9 65.139ZM153.792 87.5684C149.301 88.7678 144.58 88.8197 140.063 87.7194C135.895 86.574 128.317 82.8987 129.365 77.5872C130.413 72.2757 137.234 72.4015 141.212 73.3455C145.836 74.654 150.244 76.6256 154.298 79.1983C157.14 80.8345 159.943 82.5589 162.71 84.3462C159.846 85.6977 156.86 86.7766 153.792 87.5684ZM269.993 123.881C274.275 126.033 280.098 130.489 279.1 135.926C277.963 142.119 269.299 144.737 263.943 144.737C253.334 144.737 242.876 138.355 234.085 133.069C230.99 131.206 227.971 129.293 225.003 127.204C239.781 121.527 256.112 116.933 269.943 123.881H269.993ZM115.004 150.199C108.84 149.57 101.224 148.626 96.2478 144.611C91.2713 140.596 94.8331 133.283 99.8601 131.231C105.721 128.815 113.034 130.841 118.806 132.578C126.448 135.05 133.853 138.197 140.935 141.98C144.572 143.83 148.184 145.756 151.772 147.695C139.72 150.423 127.316 151.268 115.004 150.199ZM235.765 164.938C247.132 161.98 259.207 160.457 270.865 162.509C276.574 163.516 290.745 166.147 289.444 174.642C288.421 181.276 279.959 185.492 274.414 187.556C264.549 191.232 253.637 190.074 243.532 188.085C230.902 185.568 218.941 180.697 207.358 174.957C216.547 170.876 226.045 167.526 235.765 164.938ZM85.4613 219.652C80.0049 220.005 74.2075 219.652 69.1932 217.324C65.1893 215.448 59.0887 209.948 61.5391 205.064C64.1915 199.803 74.0433 198.834 79.0955 198.293C86.3926 197.529 93.7694 198.244 100.782 200.395C108.958 202.802 116.884 205.984 124.452 209.898C111.998 214.58 98.8623 218.733 85.5244 219.589L85.4613 219.652ZM256.706 250.527C271.244 243.428 286.362 236.971 302.176 233.497C314.048 230.892 327.866 230.036 338.198 237.55C342.682 240.81 347.33 246.663 346.901 252.478C346.522 257.651 340.396 260.785 336.228 262.547C324.86 267.242 311.725 268.362 299.599 268.501C279.39 268.727 258.563 264.725 238.973 259.69C244.808 256.506 250.694 253.435 256.706 250.527ZM103.258 311.786C91.5239 314.757 80.0175 318.684 67.8922 319.842C58.4072 320.992 48.8216 318.729 40.8629 313.46C34.0175 308.835 28.0801 302.999 23.3444 296.242C19.3279 290.515 15.6145 282.636 18.9995 275.788C23.2433 267.204 34.9392 265.82 43.3006 266.978C53.405 268.362 63.0042 272.818 71.9214 277.5C81.2932 282.434 90.2356 287.972 99.7085 292.705C108.407 297.043 117.143 301.331 125.917 305.568C118.376 307.758 110.823 309.873 103.258 311.786Z"/>
<path d="M143.827 93.5974C143.602 93.4719 143.348 93.4064 143.09 93.407C142.832 93.4075 142.579 93.4743 142.354 93.6007C142.13 93.7271 141.942 93.909 141.808 94.1289C141.674 94.3487 141.6 94.5991 141.591 94.856C138.603 94.8764 135.725 95.9859 133.5 97.9753C131.276 99.9647 129.859 102.696 129.517 105.655C128.493 112.351 133.925 117.625 140.379 118.242C146.378 118.833 150.407 114.466 151.216 108.84C151.642 105.855 151.167 102.811 149.851 100.097C148.536 97.3823 146.438 95.1196 143.827 93.5974ZM141.882 115.07C140.632 115.178 139.373 115.007 138.198 114.569C137.022 114.132 135.959 113.439 135.086 112.541C134.213 111.643 133.551 110.563 133.149 109.378C132.748 108.194 132.615 106.935 132.763 105.693C133.212 103.271 134.455 101.066 136.298 99.4234C138.14 97.7811 140.477 96.7944 142.943 96.6181C144.613 97.7683 145.968 99.3159 146.886 101.12C147.803 102.925 148.254 104.93 148.197 106.952C148.222 110.816 146.075 114.806 141.882 115.07Z"/>
<path d="M233.302 82.2065C233.173 82.1711 233.038 82.1711 232.91 82.2065C230.182 82.6687 227.75 84.1892 226.145 86.435C224.54 88.6809 223.893 91.469 224.347 94.1889C225.408 100.168 232.102 103 237.571 100.797C247.574 96.7062 243.027 78.9088 233.302 82.2065ZM236.977 97.9775C233.024 100.243 227.504 97.7132 227.012 93.2072C226.887 91.4456 227.246 89.6837 228.049 88.1096C228.852 86.5355 230.07 85.2086 231.571 84.2707C231.654 84.3687 231.756 84.4484 231.871 84.5047C231.986 84.5611 232.112 84.5928 232.241 84.5979C236.181 84.7364 239.402 84.7616 240.551 89.2298C240.964 90.8772 240.839 92.6125 240.197 94.185C239.554 95.7574 238.427 97.0856 236.977 97.9775Z"/>
<path d="M130.944 159.211C130.734 159.223 130.531 159.287 130.352 159.397C130.174 159.507 130.025 159.659 129.921 159.841C119.16 161.099 120.018 179.438 130.817 181.238C137.133 182.257 143.663 177.286 143.776 170.929C143.89 164.284 137.385 158.645 130.944 159.211ZM130.527 178.091C126.927 177.185 125.285 172.981 125.159 169.671C125.058 167.941 125.519 166.226 126.475 164.779C127.431 163.332 128.83 162.231 130.464 161.641C130.617 161.698 130.78 161.728 130.944 161.729C136.287 161.729 140.808 165.379 141.048 170.917C141.2 175.889 134.96 179.174 130.527 178.053V178.091Z"/>
<path d="M310.929 191.37C309.56 188.917 307.39 187.006 304.779 185.955C302.168 184.904 299.275 184.776 296.581 185.593C296.418 185.53 296.238 185.53 296.075 185.593C282.7 189.709 289.053 212.025 302.946 207.77C310.146 205.58 314.465 198.293 310.929 191.37ZM301.431 205.215C296.631 206.701 292.93 203.063 291.756 198.746C291.301 197.07 291.283 195.306 291.703 193.621C292.123 191.937 292.967 190.386 294.155 189.117C294.383 189.204 294.635 189.204 294.863 189.117C299.991 187.405 304.727 187.154 308.163 192.125C312.103 197.877 306.925 203.529 301.431 205.215Z"/>
<path d="M67.4249 224.485C63.6357 220.558 56.4363 219.086 53.0766 223.592C52.936 223.554 52.7878 223.554 52.6472 223.592C38.7536 229.709 54.9207 250.187 66.7302 242.17C73.096 237.941 72.3129 229.52 67.4249 224.485ZM63.762 240.458C59.8087 242.472 55.0596 239.778 52.4704 236.82C49.4895 233.422 49.9443 229.81 52.1041 226.638C52.229 226.775 52.3828 226.883 52.5545 226.955C52.7262 227.026 52.9116 227.058 53.0974 227.05C53.2833 227.042 53.4649 226.992 53.6294 226.906C53.794 226.819 53.9373 226.698 54.0492 226.55C61.6275 216.694 75.5337 234.454 63.762 240.458Z"/>
<path d="M361.362 278.633C360.099 271.207 350.475 265.606 344.033 270.099C330.026 270.502 336.215 293.082 347.911 294.228C355.729 294.996 362.562 285.77 361.362 278.633ZM346.408 290.804C338.969 288.715 335.621 275.7 342.859 272.264C343.026 272.53 343.288 272.724 343.592 272.808C343.895 272.892 344.22 272.86 344.501 272.717C345.897 271.95 347.464 271.545 349.058 271.541C350.652 271.537 352.222 271.934 353.622 272.694C355.022 273.454 356.207 274.553 357.067 275.891C357.928 277.228 358.436 278.76 358.546 280.345C359.076 286.059 352.016 292.44 346.408 290.804Z"/>
<path d="M112.377 335.524C111.316 327.872 103.712 322.12 96.4498 326.563C96.2505 326.682 96.0818 326.846 95.9573 327.041C84.2488 330.817 86.5475 350.628 99.2286 350.842C106.706 350.981 113.362 342.623 112.377 335.524ZM97.5866 347.595C93.8606 346.764 91.726 342.56 91.2713 339.099C90.9514 337.075 91.3118 335.003 92.2963 333.205C93.2809 331.406 94.8344 329.983 96.7151 329.156C96.9079 329.229 97.1147 329.257 97.3202 329.24C97.5257 329.222 97.7247 329.159 97.9024 329.055C104.129 325.669 109.434 331.283 109.421 337.488C109.421 342.85 103.081 348.816 97.5866 347.595Z"/>
</mask>
<path d="M354.037 305.38C353.923 305.185 353.772 305.015 353.593 304.879C353.413 304.743 353.208 304.644 352.99 304.586C352.772 304.529 352.545 304.515 352.321 304.545C352.098 304.576 351.882 304.65 351.688 304.763C351.493 304.876 351.322 305.026 351.185 305.205C351.049 305.384 350.949 305.588 350.892 305.806C350.834 306.023 350.82 306.25 350.85 306.472C350.881 306.695 350.955 306.91 351.069 307.104C368.751 336.745 322.018 349.785 301.216 353.209C281.891 356.406 261.897 353.511 242.964 349.206C217.084 343.316 192.265 333.259 168.33 321.956C157.367 316.783 146.378 311.648 135.402 306.449C150.18 302.082 164.831 297.249 179.091 291.484C191.128 286.625 202.306 280.156 213.585 273.724C220.583 269.759 227.593 265.807 234.653 261.956L235.449 262.17C256.024 267.62 278.241 271.912 299.612 271.786C313.164 271.71 359.19 268.954 348.871 245.241C344.16 234.479 332.59 229.256 321.425 228.387C307.418 227.28 293.069 231.735 280.123 236.543C264.082 242.497 248.837 250.162 233.857 258.331L233.264 258.18C208.403 251.446 184.581 241.364 162.457 228.211C152.593 222.358 142.816 216.203 132.737 210.691C151.254 203.34 169.113 194.051 186.619 184.901C192.202 181.98 197.86 179.174 203.595 176.568C216.895 183.289 230.7 188.966 245.376 191.748C260.053 194.529 280.009 194.139 290 180.923C300.648 166.851 279.138 160.042 268.768 158.683C246.614 155.75 224.018 163.68 203.961 172.402L203.153 172.767C194.046 168.06 185.167 162.887 176.401 157.902C171.349 155.045 166.297 152.163 161.244 149.318C177.664 145.253 193.806 139.362 209.43 133.358C213.156 131.936 217.122 130.275 221.252 128.626C226.46 132.341 231.856 135.786 237.419 138.947C245.591 143.554 254.42 147.644 263.943 148.123C271.079 148.475 282.119 143.73 282.611 135.473C283.104 127.216 274.022 121.401 267.076 118.922C258.007 115.699 247.637 117.185 238.531 119.375C232.796 120.833 227.156 122.64 221.644 124.787C205.691 113.459 191.116 100.117 175.226 88.6634C173.5 87.4215 171.753 86.1922 169.985 84.9755C180.809 78.8333 190.547 70.0982 201.561 64.7489L202.496 64.3209C205.704 72.5903 211.337 79.6136 221.151 80.243C226.468 80.5828 234.009 78.9843 234.527 72.691C234.994 66.9641 228.401 62.1812 223.98 60.0163C217.602 56.8948 210.983 57.3731 204.555 59.5884C203.646 56.3419 202.921 53.0475 202.382 49.7205C200.437 38.3925 201.119 26.1457 197.557 15.1451C197.434 14.7751 197.184 14.4598 196.852 14.2535C196.52 14.0472 196.126 13.9629 195.738 14.0151C195.351 14.0673 194.993 14.2528 194.728 14.5395C194.463 14.8262 194.307 15.1962 194.286 15.5856C192.53 29.6574 184.586 41.514 176.603 52.8923C175.643 54.2642 177.866 55.4977 178.826 54.1509C185.937 44.497 192.631 34.7676 195.903 23.4019C196.383 26.7751 196.623 30.186 196.951 33.4712C197.521 40.647 198.461 47.7888 199.768 54.8684C200.159 56.8193 200.652 58.808 201.245 60.7715C193.048 64.3335 185.28 70.287 178.851 74.6168C174.814 77.4449 170.632 80.0623 166.322 82.4582C161.775 79.45 157.102 76.5929 152.327 74.0629C146.543 70.9918 137.752 66.9515 131.272 70.3751C123.694 74.365 124.78 82.3449 130.805 87.0271C137.385 92.1373 145.823 92.7666 153.742 91.2311C158.181 90.3228 162.473 88.8109 166.499 86.7377C170.465 89.406 174.342 92.1751 178.144 95.0071C191.633 105.076 204.315 116.203 217.88 126.121L209.468 129.394C197.658 133.963 185.558 138.066 173.471 141.842C167.863 143.591 162.166 145.202 156.432 146.574C150.723 143.44 144.976 140.394 139.154 137.525C127.988 132.112 113.021 124.384 100.138 127.669C97.7019 128.354 95.5107 129.714 93.8184 131.589C92.1261 133.465 91.0021 135.781 90.5766 138.267C89.5915 143.39 93.1785 147.204 97.3971 149.432C108.575 155.322 124.085 155.133 136.312 153.837C143.164 153.084 149.966 151.937 156.685 150.401C164.402 154.68 172.056 159.085 179.685 163.44C186.202 167.216 192.795 170.904 199.515 174.416C189.903 178.897 180.569 184.007 171.147 188.802C157.253 195.851 143.17 202.497 128.67 208.198L128.38 208.312C119.023 203.283 109.142 199.29 98.9128 196.405C92.4668 194.704 85.7596 194.213 79.1334 194.957C73.197 195.536 66.5913 196.682 61.6527 200.256C51.9778 207.267 62.3095 218.293 70.052 221.251C81.3185 225.568 95.1363 222.434 106.327 219.489C114 217.438 121.56 214.984 128.973 212.138C141.528 218.859 153.54 226.801 165.728 233.888C185.87 245.414 207.378 254.386 229.752 260.596C218.536 266.789 207.447 273.183 196.244 279.338C179.117 288.727 160.562 295.021 141.932 300.735C138.168 301.893 134.379 303.034 130.565 304.159C118.781 298.545 107.034 292.831 95.4141 286.965C78.4134 278.331 62.1201 265.921 42.5428 263.743C28.7502 262.207 11.7748 269.407 14.8693 285.681C17.4712 299.401 31.0995 311.736 42.6564 318.482C61.0465 329.269 84.1856 320.446 102.967 315.461C112.2 313.007 121.446 310.515 130.653 307.909C144.471 314.572 158.331 321.125 172.233 327.57C195.637 338.394 219.913 347.708 245.149 353.246C263.249 357.249 282.207 359.54 300.66 356.808C324.14 353.284 373.513 338.079 354.037 305.38ZM225.9 65.139C228.287 66.8005 230.952 69.5695 230.952 72.691C231.053 76.7565 223.614 76.8698 221.063 76.8068C212.802 76.5425 208.306 70.2492 205.628 62.9867C212.499 60.5953 219.408 60.6205 225.9 65.139ZM153.792 87.5684C149.301 88.7678 144.58 88.8197 140.063 87.7194C135.895 86.574 128.317 82.8987 129.365 77.5872C130.413 72.2757 137.234 72.4015 141.212 73.3455C145.836 74.654 150.244 76.6256 154.298 79.1983C157.14 80.8345 159.943 82.5589 162.71 84.3462C159.846 85.6977 156.86 86.7766 153.792 87.5684ZM269.993 123.881C274.275 126.033 280.098 130.489 279.1 135.926C277.963 142.119 269.299 144.737 263.943 144.737C253.334 144.737 242.876 138.355 234.085 133.069C230.99 131.206 227.971 129.293 225.003 127.204C239.781 121.527 256.112 116.933 269.943 123.881H269.993ZM115.004 150.199C108.84 149.57 101.224 148.626 96.2478 144.611C91.2713 140.596 94.8331 133.283 99.8601 131.231C105.721 128.815 113.034 130.841 118.806 132.578C126.448 135.05 133.853 138.197 140.935 141.98C144.572 143.83 148.184 145.756 151.772 147.695C139.72 150.423 127.316 151.268 115.004 150.199ZM235.765 164.938C247.132 161.98 259.207 160.457 270.865 162.509C276.574 163.516 290.745 166.147 289.444 174.642C288.421 181.276 279.959 185.492 274.414 187.556C264.549 191.232 253.637 190.074 243.532 188.085C230.902 185.568 218.941 180.697 207.358 174.957C216.547 170.876 226.045 167.526 235.765 164.938ZM85.4613 219.652C80.0049 220.005 74.2075 219.652 69.1932 217.324C65.1893 215.448 59.0887 209.948 61.5391 205.064C64.1915 199.803 74.0433 198.834 79.0955 198.293C86.3926 197.529 93.7694 198.244 100.782 200.395C108.958 202.802 116.884 205.984 124.452 209.898C111.998 214.58 98.8623 218.733 85.5244 219.589L85.4613 219.652ZM256.706 250.527C271.244 243.428 286.362 236.971 302.176 233.497C314.048 230.892 327.866 230.036 338.198 237.55C342.682 240.81 347.33 246.663 346.901 252.478C346.522 257.651 340.396 260.785 336.228 262.547C324.86 267.242 311.725 268.362 299.599 268.501C279.39 268.727 258.563 264.725 238.973 259.69C244.808 256.506 250.694 253.435 256.706 250.527ZM103.258 311.786C91.5239 314.757 80.0175 318.684 67.8922 319.842C58.4072 320.992 48.8216 318.729 40.8629 313.46C34.0175 308.835 28.0801 302.999 23.3444 296.242C19.3279 290.515 15.6145 282.636 18.9995 275.788C23.2433 267.204 34.9392 265.82 43.3006 266.978C53.405 268.362 63.0042 272.818 71.9214 277.5C81.2932 282.434 90.2356 287.972 99.7085 292.705C108.407 297.043 117.143 301.331 125.917 305.568C118.376 307.758 110.823 309.873 103.258 311.786Z" fill="#FAFAFA"/>
<path d="M143.827 93.5974C143.602 93.4719 143.348 93.4064 143.09 93.407C142.832 93.4075 142.579 93.4743 142.354 93.6007C142.13 93.7271 141.942 93.909 141.808 94.1289C141.674 94.3487 141.6 94.5991 141.591 94.856C138.603 94.8764 135.725 95.9859 133.5 97.9753C131.276 99.9647 129.859 102.696 129.517 105.655C128.493 112.351 133.925 117.625 140.379 118.242C146.378 118.833 150.407 114.466 151.216 108.84C151.642 105.855 151.167 102.811 149.851 100.097C148.536 97.3823 146.438 95.1196 143.827 93.5974ZM141.882 115.07C140.632 115.178 139.373 115.007 138.198 114.569C137.022 114.132 135.959 113.439 135.086 112.541C134.213 111.643 133.551 110.563 133.149 109.378C132.748 108.194 132.615 106.935 132.763 105.693C133.212 103.271 134.455 101.066 136.298 99.4234C138.14 97.7811 140.477 96.7944 142.943 96.6181C144.613 97.7683 145.968 99.3159 146.886 101.12C147.803 102.925 148.254 104.93 148.197 106.952C148.222 110.816 146.075 114.806 141.882 115.07Z" fill="#FAFAFA"/>
<path d="M233.302 82.2065C233.173 82.1711 233.038 82.1711 232.91 82.2065C230.182 82.6687 227.75 84.1892 226.145 86.435C224.54 88.6809 223.893 91.469 224.347 94.1889C225.408 100.168 232.102 103 237.571 100.797C247.574 96.7062 243.027 78.9088 233.302 82.2065ZM236.977 97.9775C233.024 100.243 227.504 97.7132 227.012 93.2072C226.887 91.4456 227.246 89.6837 228.049 88.1096C228.852 86.5355 230.07 85.2086 231.571 84.2707C231.654 84.3687 231.756 84.4484 231.871 84.5047C231.986 84.5611 232.112 84.5928 232.241 84.5979C236.181 84.7364 239.402 84.7616 240.551 89.2298C240.964 90.8772 240.839 92.6125 240.197 94.185C239.554 95.7574 238.427 97.0856 236.977 97.9775Z" fill="#FAFAFA"/>
<path d="M130.944 159.211C130.734 159.223 130.531 159.287 130.352 159.397C130.174 159.507 130.025 159.659 129.921 159.841C119.16 161.099 120.018 179.438 130.817 181.238C137.133 182.257 143.663 177.286 143.776 170.929C143.89 164.284 137.385 158.645 130.944 159.211ZM130.527 178.091C126.927 177.185 125.285 172.981 125.159 169.671C125.058 167.941 125.519 166.226 126.475 164.779C127.431 163.332 128.83 162.231 130.464 161.641C130.617 161.698 130.78 161.728 130.944 161.729C136.287 161.729 140.808 165.379 141.048 170.917C141.2 175.889 134.96 179.174 130.527 178.053V178.091Z" fill="#FAFAFA"/>
<path d="M310.929 191.37C309.56 188.917 307.39 187.006 304.779 185.955C302.168 184.904 299.275 184.776 296.581 185.593C296.418 185.53 296.238 185.53 296.075 185.593C282.7 189.709 289.053 212.025 302.946 207.77C310.146 205.58 314.465 198.293 310.929 191.37ZM301.431 205.215C296.631 206.701 292.93 203.063 291.756 198.746C291.301 197.07 291.283 195.306 291.703 193.621C292.123 191.937 292.967 190.386 294.155 189.117C294.383 189.204 294.635 189.204 294.863 189.117C299.991 187.405 304.727 187.154 308.163 192.125C312.103 197.877 306.925 203.529 301.431 205.215Z" fill="#FAFAFA"/>
<path d="M67.4249 224.485C63.6357 220.558 56.4363 219.086 53.0766 223.592C52.936 223.554 52.7878 223.554 52.6472 223.592C38.7536 229.709 54.9207 250.187 66.7302 242.17C73.096 237.941 72.3129 229.52 67.4249 224.485ZM63.762 240.458C59.8087 242.472 55.0596 239.778 52.4704 236.82C49.4895 233.422 49.9443 229.81 52.1041 226.638C52.229 226.775 52.3828 226.883 52.5545 226.955C52.7262 227.026 52.9116 227.058 53.0974 227.05C53.2833 227.042 53.4649 226.992 53.6294 226.906C53.794 226.819 53.9373 226.698 54.0492 226.55C61.6275 216.694 75.5337 234.454 63.762 240.458Z" fill="#FAFAFA"/>
<path d="M361.362 278.633C360.099 271.207 350.475 265.606 344.033 270.099C330.026 270.502 336.215 293.082 347.911 294.228C355.729 294.996 362.562 285.77 361.362 278.633ZM346.408 290.804C338.969 288.715 335.621 275.7 342.859 272.264C343.026 272.53 343.288 272.724 343.592 272.808C343.895 272.892 344.22 272.86 344.501 272.717C345.897 271.95 347.464 271.545 349.058 271.541C350.652 271.537 352.222 271.934 353.622 272.694C355.022 273.454 356.207 274.553 357.067 275.891C357.928 277.228 358.436 278.76 358.546 280.345C359.076 286.059 352.016 292.44 346.408 290.804Z" fill="#FAFAFA"/>
<path d="M112.377 335.524C111.316 327.872 103.712 322.12 96.4498 326.563C96.2505 326.682 96.0818 326.846 95.9573 327.041C84.2488 330.817 86.5475 350.628 99.2286 350.842C106.706 350.981 113.362 342.623 112.377 335.524ZM97.5866 347.595C93.8606 346.764 91.726 342.56 91.2713 339.099C90.9514 337.075 91.3118 335.003 92.2963 333.205C93.2809 331.406 94.8344 329.983 96.7151 329.156C96.9079 329.229 97.1147 329.257 97.3202 329.24C97.5257 329.222 97.7247 329.159 97.9024 329.055C104.129 325.669 109.434 331.283 109.421 337.488C109.421 342.85 103.081 348.816 97.5866 347.595Z" fill="#FAFAFA"/>
<path d="M354.037 305.38C353.923 305.185 353.772 305.015 353.593 304.879C353.413 304.743 353.208 304.644 352.99 304.586C352.772 304.529 352.545 304.515 352.321 304.545C352.098 304.576 351.882 304.65 351.688 304.763C351.493 304.876 351.322 305.026 351.185 305.205C351.049 305.384 350.949 305.588 350.892 305.806C350.834 306.023 350.82 306.25 350.85 306.472C350.881 306.695 350.955 306.91 351.069 307.104C368.751 336.745 322.018 349.785 301.216 353.209C281.891 356.406 261.897 353.511 242.964 349.206C217.084 343.316 192.265 333.259 168.33 321.956C157.367 316.783 146.378 311.648 135.402 306.449C150.18 302.082 164.831 297.249 179.091 291.484C191.128 286.625 202.306 280.156 213.585 273.724C220.583 269.759 227.593 265.807 234.653 261.956L235.449 262.17C256.024 267.62 278.241 271.912 299.612 271.786C313.164 271.71 359.19 268.954 348.871 245.241C344.16 234.479 332.59 229.256 321.425 228.387C307.418 227.28 293.069 231.735 280.123 236.543C264.082 242.497 248.837 250.162 233.857 258.331L233.264 258.18C208.403 251.446 184.581 241.364 162.457 228.211C152.593 222.358 142.816 216.203 132.737 210.691C151.254 203.34 169.113 194.051 186.619 184.901C192.202 181.98 197.86 179.174 203.595 176.568C216.895 183.289 230.7 188.966 245.376 191.748C260.053 194.529 280.009 194.139 290 180.923C300.648 166.851 279.138 160.042 268.768 158.683C246.614 155.75 224.018 163.68 203.961 172.402L203.153 172.767C194.046 168.06 185.167 162.887 176.401 157.902C171.349 155.045 166.297 152.163 161.244 149.318C177.664 145.253 193.806 139.362 209.43 133.358C213.156 131.936 217.122 130.275 221.252 128.626C226.46 132.341 231.856 135.786 237.419 138.947C245.591 143.554 254.42 147.644 263.943 148.123C271.079 148.475 282.119 143.73 282.611 135.473C283.104 127.216 274.022 121.401 267.076 118.922C258.007 115.699 247.637 117.185 238.531 119.375C232.796 120.833 227.156 122.64 221.644 124.787C205.691 113.459 191.116 100.117 175.226 88.6634C173.5 87.4215 171.753 86.1922 169.985 84.9755C180.809 78.8333 190.547 70.0982 201.561 64.7489L202.496 64.3209C205.704 72.5903 211.337 79.6136 221.151 80.243C226.468 80.5828 234.009 78.9843 234.527 72.691C234.994 66.9641 228.401 62.1812 223.98 60.0163C217.602 56.8948 210.983 57.3731 204.555 59.5884C203.646 56.3419 202.921 53.0475 202.382 49.7205C200.437 38.3925 201.119 26.1457 197.557 15.1451C197.434 14.7751 197.184 14.4598 196.852 14.2535C196.52 14.0472 196.126 13.9629 195.738 14.0151C195.351 14.0673 194.993 14.2528 194.728 14.5395C194.463 14.8262 194.307 15.1962 194.286 15.5856C192.53 29.6574 184.586 41.514 176.603 52.8923C175.643 54.2642 177.866 55.4977 178.826 54.1509C185.937 44.497 192.631 34.7676 195.903 23.4019C196.383 26.7751 196.623 30.186 196.951 33.4712C197.521 40.647 198.461 47.7888 199.768 54.8684C200.159 56.8193 200.652 58.808 201.245 60.7715C193.048 64.3335 185.28 70.287 178.851 74.6168C174.814 77.4449 170.632 80.0623 166.322 82.4582C161.775 79.45 157.102 76.5929 152.327 74.0629C146.543 70.9918 137.752 66.9515 131.272 70.3751C123.694 74.365 124.78 82.3449 130.805 87.0271C137.385 92.1373 145.823 92.7666 153.742 91.2311C158.181 90.3228 162.473 88.8109 166.499 86.7377C170.465 89.406 174.342 92.1751 178.144 95.0071C191.633 105.076 204.315 116.203 217.88 126.121L209.468 129.394C197.658 133.963 185.558 138.066 173.471 141.842C167.863 143.591 162.166 145.202 156.432 146.574C150.723 143.44 144.976 140.394 139.154 137.525C127.988 132.112 113.021 124.384 100.138 127.669C97.7019 128.354 95.5107 129.714 93.8184 131.589C92.1261 133.465 91.0021 135.781 90.5766 138.267C89.5915 143.39 93.1785 147.204 97.3971 149.432C108.575 155.322 124.085 155.133 136.312 153.837C143.164 153.084 149.966 151.937 156.685 150.401C164.402 154.68 172.056 159.085 179.685 163.44C186.202 167.216 192.795 170.904 199.515 174.416C189.903 178.897 180.569 184.007 171.147 188.802C157.253 195.851 143.17 202.497 128.67 208.198L128.38 208.312C119.023 203.283 109.142 199.29 98.9128 196.405C92.4668 194.704 85.7596 194.213 79.1334 194.957C73.197 195.536 66.5913 196.682 61.6527 200.256C51.9778 207.267 62.3095 218.293 70.052 221.251C81.3185 225.568 95.1363 222.434 106.327 219.489C114 217.438 121.56 214.984 128.973 212.138C141.528 218.859 153.54 226.801 165.728 233.888C185.87 245.414 207.378 254.386 229.752 260.596C218.536 266.789 207.447 273.183 196.244 279.338C179.117 288.727 160.562 295.021 141.932 300.735C138.168 301.893 134.379 303.034 130.565 304.159C118.781 298.545 107.034 292.831 95.4141 286.965C78.4134 278.331 62.1201 265.921 42.5428 263.743C28.7502 262.207 11.7748 269.407 14.8693 285.681C17.4712 299.401 31.0995 311.736 42.6564 318.482C61.0465 329.269 84.1856 320.446 102.967 315.461C112.2 313.007 121.446 310.515 130.653 307.909C144.471 314.572 158.331 321.125 172.233 327.57C195.637 338.394 219.913 347.708 245.149 353.246C263.249 357.249 282.207 359.54 300.66 356.808C324.14 353.284 373.513 338.079 354.037 305.38ZM225.9 65.139C228.287 66.8005 230.952 69.5695 230.952 72.691C231.053 76.7565 223.614 76.8698 221.063 76.8068C212.802 76.5425 208.306 70.2492 205.628 62.9867C212.499 60.5953 219.408 60.6205 225.9 65.139ZM153.792 87.5684C149.301 88.7678 144.58 88.8197 140.063 87.7194C135.895 86.574 128.317 82.8987 129.365 77.5872C130.413 72.2757 137.234 72.4015 141.212 73.3455C145.836 74.654 150.244 76.6256 154.298 79.1983C157.14 80.8345 159.943 82.5589 162.71 84.3462C159.846 85.6977 156.86 86.7766 153.792 87.5684ZM269.993 123.881C274.275 126.033 280.098 130.489 279.1 135.926C277.963 142.119 269.299 144.737 263.943 144.737C253.334 144.737 242.876 138.355 234.085 133.069C230.99 131.206 227.971 129.293 225.003 127.204C239.781 121.527 256.112 116.933 269.943 123.881H269.993ZM115.004 150.199C108.84 149.57 101.224 148.626 96.2478 144.611C91.2713 140.596 94.8331 133.283 99.8601 131.231C105.721 128.815 113.034 130.841 118.806 132.578C126.448 135.05 133.853 138.197 140.935 141.98C144.572 143.83 148.184 145.756 151.772 147.695C139.72 150.423 127.316 151.268 115.004 150.199ZM235.765 164.938C247.132 161.98 259.207 160.457 270.865 162.509C276.574 163.516 290.745 166.147 289.444 174.642C288.421 181.276 279.959 185.492 274.414 187.556C264.549 191.232 253.637 190.074 243.532 188.085C230.902 185.568 218.941 180.697 207.358 174.957C216.547 170.876 226.045 167.526 235.765 164.938ZM85.4613 219.652C80.0049 220.005 74.2075 219.652 69.1932 217.324C65.1893 215.448 59.0887 209.948 61.5391 205.064C64.1915 199.803 74.0433 198.834 79.0955 198.293C86.3926 197.529 93.7694 198.244 100.782 200.395C108.958 202.802 116.884 205.984 124.452 209.898C111.998 214.58 98.8623 218.733 85.5244 219.589L85.4613 219.652ZM256.706 250.527C271.244 243.428 286.362 236.971 302.176 233.497C314.048 230.892 327.866 230.036 338.198 237.55C342.682 240.81 347.33 246.663 346.901 252.478C346.522 257.651 340.396 260.785 336.228 262.547C324.86 267.242 311.725 268.362 299.599 268.501C279.39 268.727 258.563 264.725 238.973 259.69C244.808 256.506 250.694 253.435 256.706 250.527ZM103.258 311.786C91.5239 314.757 80.0175 318.684 67.8922 319.842C58.4072 320.992 48.8216 318.729 40.8629 313.46C34.0175 308.835 28.0801 302.999 23.3444 296.242C19.3279 290.515 15.6145 282.636 18.9995 275.788C23.2433 267.204 34.9392 265.82 43.3006 266.978C53.405 268.362 63.0042 272.818 71.9214 277.5C81.2932 282.434 90.2356 287.972 99.7085 292.705C108.407 297.043 117.143 301.331 125.917 305.568C118.376 307.758 110.823 309.873 103.258 311.786Z" stroke="#CBAC80" stroke-width="0.8" mask="url(#path-1-outside-1_22_3178)"/>
<path d="M143.827 93.5974C143.602 93.4719 143.348 93.4064 143.09 93.407C142.832 93.4075 142.579 93.4743 142.354 93.6007C142.13 93.7271 141.942 93.909 141.808 94.1289C141.674 94.3487 141.6 94.5991 141.591 94.856C138.603 94.8764 135.725 95.9859 133.5 97.9753C131.276 99.9647 129.859 102.696 129.517 105.655C128.493 112.351 133.925 117.625 140.379 118.242C146.378 118.833 150.407 114.466 151.216 108.84C151.642 105.855 151.167 102.811 149.851 100.097C148.536 97.3823 146.438 95.1196 143.827 93.5974ZM141.882 115.07C140.632 115.178 139.373 115.007 138.198 114.569C137.022 114.132 135.959 113.439 135.086 112.541C134.213 111.643 133.551 110.563 133.149 109.378C132.748 108.194 132.615 106.935 132.763 105.693C133.212 103.271 134.455 101.066 136.298 99.4234C138.14 97.7811 140.477 96.7944 142.943 96.6181C144.613 97.7683 145.968 99.3159 146.886 101.12C147.803 102.925 148.254 104.93 148.197 106.952C148.222 110.816 146.075 114.806 141.882 115.07Z" stroke="#CBAC80" stroke-width="0.8" mask="url(#path-1-outside-1_22_3178)"/>
<path d="M233.302 82.2065C233.173 82.1711 233.038 82.1711 232.91 82.2065C230.182 82.6687 227.75 84.1892 226.145 86.435C224.54 88.6809 223.893 91.469 224.347 94.1889C225.408 100.168 232.102 103 237.571 100.797C247.574 96.7062 243.027 78.9088 233.302 82.2065ZM236.977 97.9775C233.024 100.243 227.504 97.7132 227.012 93.2072C226.887 91.4456 227.246 89.6837 228.049 88.1096C228.852 86.5355 230.07 85.2086 231.571 84.2707C231.654 84.3687 231.756 84.4484 231.871 84.5047C231.986 84.5611 232.112 84.5928 232.241 84.5979C236.181 84.7364 239.402 84.7616 240.551 89.2298C240.964 90.8772 240.839 92.6125 240.197 94.185C239.554 95.7574 238.427 97.0856 236.977 97.9775Z" stroke="#CBAC80" stroke-width="0.8" mask="url(#path-1-outside-1_22_3178)"/>
<path d="M130.944 159.211C130.734 159.223 130.531 159.287 130.352 159.397C130.174 159.507 130.025 159.659 129.921 159.841C119.16 161.099 120.018 179.438 130.817 181.238C137.133 182.257 143.663 177.286 143.776 170.929C143.89 164.284 137.385 158.645 130.944 159.211ZM130.527 178.091C126.927 177.185 125.285 172.981 125.159 169.671C125.058 167.941 125.519 166.226 126.475 164.779C127.431 163.332 128.83 162.231 130.464 161.641C130.617 161.698 130.78 161.728 130.944 161.729C136.287 161.729 140.808 165.379 141.048 170.917C141.2 175.889 134.96 179.174 130.527 178.053V178.091Z" stroke="#CBAC80" stroke-width="0.8" mask="url(#path-1-outside-1_22_3178)"/>
<path d="M310.929 191.37C309.56 188.917 307.39 187.006 304.779 185.955C302.168 184.904 299.275 184.776 296.581 185.593C296.418 185.53 296.238 185.53 296.075 185.593C282.7 189.709 289.053 212.025 302.946 207.77C310.146 205.58 314.465 198.293 310.929 191.37ZM301.431 205.215C296.631 206.701 292.93 203.063 291.756 198.746C291.301 197.07 291.283 195.306 291.703 193.621C292.123 191.937 292.967 190.386 294.155 189.117C294.383 189.204 294.635 189.204 294.863 189.117C299.991 187.405 304.727 187.154 308.163 192.125C312.103 197.877 306.925 203.529 301.431 205.215Z" stroke="#CBAC80" stroke-width="0.8" mask="url(#path-1-outside-1_22_3178)"/>
<path d="M67.4249 224.485C63.6357 220.558 56.4363 219.086 53.0766 223.592C52.936 223.554 52.7878 223.554 52.6472 223.592C38.7536 229.709 54.9207 250.187 66.7302 242.17C73.096 237.941 72.3129 229.52 67.4249 224.485ZM63.762 240.458C59.8087 242.472 55.0596 239.778 52.4704 236.82C49.4895 233.422 49.9443 229.81 52.1041 226.638C52.229 226.775 52.3828 226.883 52.5545 226.955C52.7262 227.026 52.9116 227.058 53.0974 227.05C53.2833 227.042 53.4649 226.992 53.6294 226.906C53.794 226.819 53.9373 226.698 54.0492 226.55C61.6275 216.694 75.5337 234.454 63.762 240.458Z" stroke="#CBAC80" stroke-width="0.8" mask="url(#path-1-outside-1_22_3178)"/>
<path d="M361.362 278.633C360.099 271.207 350.475 265.606 344.033 270.099C330.026 270.502 336.215 293.082 347.911 294.228C355.729 294.996 362.562 285.77 361.362 278.633ZM346.408 290.804C338.969 288.715 335.621 275.7 342.859 272.264C343.026 272.53 343.288 272.724 343.592 272.808C343.895 272.892 344.22 272.86 344.501 272.717C345.897 271.95 347.464 271.545 349.058 271.541C350.652 271.537 352.222 271.934 353.622 272.694C355.022 273.454 356.207 274.553 357.067 275.891C357.928 277.228 358.436 278.76 358.546 280.345C359.076 286.059 352.016 292.44 346.408 290.804Z" stroke="#CBAC80" stroke-width="0.8" mask="url(#path-1-outside-1_22_3178)"/>
<path d="M112.377 335.524C111.316 327.872 103.712 322.12 96.4498 326.563C96.2505 326.682 96.0818 326.846 95.9573 327.041C84.2488 330.817 86.5475 350.628 99.2286 350.842C106.706 350.981 113.362 342.623 112.377 335.524ZM97.5866 347.595C93.8606 346.764 91.726 342.56 91.2713 339.099C90.9514 337.075 91.3118 335.003 92.2963 333.205C93.2809 331.406 94.8344 329.983 96.7151 329.156C96.9079 329.229 97.1147 329.257 97.3202 329.24C97.5257 329.222 97.7247 329.159 97.9024 329.055C104.129 325.669 109.434 331.283 109.421 337.488C109.421 342.85 103.081 348.816 97.5866 347.595Z" stroke="#CBAC80" stroke-width="0.8" mask="url(#path-1-outside-1_22_3178)"/>
</g>
<defs>
<filter id="filter0_d_22_3178" x="0.699976" y="0.199976" width="374.6" height="371.6" filterUnits="userSpaceOnUse" color-interpolation-filters="sRGB">
<feFlood flood-opacity="0" result="BackgroundImageFix"/>
<feColorMatrix in="SourceAlpha" type="matrix" values="0 0 0 0 0 0 0 0 0 0 0 0 0 0 0 0 0 0 127 0" result="hardAlpha"/>
<feOffset/>
<feGaussianBlur stdDeviation="6.7"/>
<feComposite in2="hardAlpha" operator="out"/>
<feColorMatrix type="matrix" values="0 0 0 0 1 0 0 0 0 0.807843 0 0 0 0 0.2 0 0 0 0.5 0"/>
<feBlend mode="normal" in2="BackgroundImageFix" result="effect1_dropShadow_22_3178"/>
<feBlend mode="normal" in="SourceGraphic" in2="effect1_dropShadow_22_3178" result="shape"/>
</filter>
</defs>
</svg>
